PathFileType	4	(X/Y/Z)	walk-thru1-1-TP.trc
DataRate	CameraRate	NumFrames	NumMarkers	Units	OrigDataRate	OrigDataStartFrame	OrigNumFrames
120.00	120.00	       5	60	mm	120.00	450	       514
Frame#	Time	Top.Head			Front.Head			Rear.Head			Jaw			C7			R.Clavicle			L.Clavicle			R.Shoulder			L.Shoulder			R.Scapula			L.Scapula			R.Scap.Inf			R.Biceps.Lateral			R.Elbow			R.Elbow.Medial			R.Forearm			R.Ulna			R.Radius			R.Wrist			R.Thumb.M1			R.Thumb.M2			R.Thumb.M3			R.Finger3.M1			R.Finger3.M2			R.Finger3.M3			L.Biceps.Lateral			L.Elbow			L.Elbow.Medial			L.Forearm			L.Ulna			L.Radius			L.Wrist			L.Thumb.M1			L.Thumb.M2			L.Thumb.M3			L.Finger3.M1			L.Finger3.M2			L.Finger3.M3			V.Sacral			R.ASIS			L.ASIS			R.Thigh			R.Thigh.Front			R.Knee			R.Knee.Medial			R.Shank			R.Ankle			R.Ankle.Medial			R.Heel			R.Toe			R.MedFoot			L.Thigh			L.Knee			L.Knee.Medial			L.Shank			L.Ankle			L.Ankle.Medial			L.Heel			L.Toe			L.MedFoot			V_mid_ASIS			V_R_Knee_JC			V_L_Knee_JC			V_R_Elbow_JC			V_L_Elbow_JC			V_R_Ankle_JC			V_L_Ankle_JC			V_R_Wrist_JC			V_L_Wrist_JC			V_R_ScaTrpz_1stMC_JC			V_R_1stMC_1stPP_JC			V_R_1stPP_1stDP_JC			V_R_LunCap_3rdMC_JC			V_R_3rdMC_3rdPP_JC			V_R_3rdPP_3rdMP_JC			V_R_3rdMP_3rdDP_JC			V_L_ScaTrpz_1stMC_JC			V_L_1stMC_1stPP_JC			V_L_1stPP_1stDP_JC			V_L_LunCap_3rdMC_JC			V_L_3rdMC_3rdPP_JC			V_L_3rdPP_3rdMP_JC			V_L_3rdMP_3rdPP_JC			V_ROOT_JC			V_R_Hip_JC			V_L_Hip_JC			V_R_GlenHum_JC			V_L_GlenHum_JC			V_ForeHead_Ctr			V_Vertex			V_Sagit_Lambdoid_Suture			V_R_FrontoTemp			V_L_FrontoTemporal			V_R_ParietalOccip			V_L_ParietalOcciptal			V_R_Temporal			V_L_Temporal			V_mid_FrontRearHead			V_mid_RLGlenHumCtrs			V_C7_vert			V_C1_vert			V_Mid_Hip			
		X1	Y1	Z1	X2	Y2	Z2	X3	Y3	Z3	X4	Y4	Z4	X5	Y5	Z5	X6	Y6	Z6	X7	Y7	Z7	X8	Y8	Z8	X9	Y9	Z9	X10	Y10	Z10	X11	Y11	Z11	X12	Y12	Z12	X13	Y13	Z13	X14	Y14	Z14	X15	Y15	Z15	X16	Y16	Z16	X17	Y17	Z17	X18	Y18	Z18	X19	Y19	Z19	X20	Y20	Z20	X21	Y21	Z21	X22	Y22	Z22	X23	Y23	Z23	X24	Y24	Z24	X25	Y25	Z25	X26	Y26	Z26	X27	Y27	Z27	X28	Y28	Z28	X29	Y29	Z29	X30	Y30	Z30	X31	Y31	Z31	X32	Y32	Z32	X33	Y33	Z33	X34	Y34	Z34	X35	Y35	Z35	X36	Y36	Z36	X37	Y37	Z37	X38	Y38	Z38	X39	Y39	Z39	X40	Y40	Z40	X41	Y41	Z41	X42	Y42	Z42	X43	Y43	Z43	X44	Y44	Z44	X45	Y45	Z45	X46	Y46	Z46	X47	Y47	Z47	X48	Y48	Z48	X49	Y49	Z49	X50	Y50	Z50	X51	Y51	Z51	X52	Y52	Z52	X53	Y53	Z53	X54	Y54	Z54	X55	Y55	Z55	X56	Y56	Z56	X57	Y57	Z57	X58	Y58	Z58	X59	Y59	Z59	X60	Y60	Z60	

450	3.742	-1369.67542	-9.83415	1766.77625	-1459.05566	-0.50426	1637.45642	-1232.96411	-10.92679	1705.53479	-1355.70898	-3.59868	1470.69128	-1131.38452	5.63436	1579.05530	-1232.28394	117.52239	1493.37305	-1224.50781	-129.15747	1487.06433	-1189.26575	225.42160	1484.20813	-1165.55554	-228.70792	1488.80359	-1068.50061	104.34174	1488.15906	-1052.57959	-82.95461	1484.76453	-1037.54285	107.65891	1399.44250	-1153.75354	258.75281	1343.04199	-1091.29749	292.24680	1162.39368	-1084.04675	193.17082	1153.86243	-1182.62683	273.26471	1094.58191	-1122.49573	288.74884	960.75385	-1228.22241	260.61545	925.44812	-1240.43530	307.99823	903.22351	-1248.25110	258.12640	876.52985	-1251.47705	241.58740	825.16699	-1253.25305	254.86827	775.06238	-1261.30029	333.27878	827.38635	-1225.10327	314.06357	758.99622	-1187.05212	262.48969	775.07013	-1098.02161	-250.97166	1347.02197	-1024.64673	-256.07941	1181.36743	-1023.85577	-162.62390	1158.51404	-1100.98389	-262.16202	1093.42542	-1029.03967	-280.94727	994.65149	-1122.49231	-267.42719	929.80426	-1097.01184	-307.25085	899.03442	-1140.49524	-267.83694	872.34607	-1152.74390	-243.43477	825.67065	-1156.61462	-242.51486	774.96991	-1109.34534	-319.73752	797.36200	-1105.98315	-286.89215	739.38855	-1102.23157	-226.19983	742.84442	-1007.80530	2.90242	1125.69092	-1207.78711	184.86880	1062.71973	-1191.47986	-168.29216	1075.85229	-1213.95996	161.79645	684.58356	-1285.46436	64.64552	593.04303	-1248.30835	127.00201	528.83966	-1226.29224	18.42329	530.00262	-1253.74524	77.82668	313.27945	-1163.36926	111.87051	84.06976	-1173.26990	8.01625	106.06551	-1099.22363	67.52404	48.09228	-1333.50146	69.21596	42.11099	-1270.02234	31.49522	78.78175	-1223.22449	-178.39157	688.48450	-1243.23340	-170.16800	536.22412	-1243.19556	-57.80049	517.23865	-1133.19434	-122.01954	352.34024	-902.82428	-129.54683	223.95009	-963.19226	-44.30437	214.47493	-857.70978	-57.94966	224.94731	-1004.51752	-121.75494	75.02359	-996.99780	-82.00739	145.37202																																																																																																																															
451	3.750	-1375.83691	-7.90867	1767.73425	-1463.99280	0.37619	1637.89282	-1237.17249	-10.40661	1705.89392	-1360.61755	-2.87403	1471.32581	-1136.84644	5.22587	1579.71741	-1237.96265	118.37939	1494.60388	-1228.85876	-128.33679	1487.64722	-1194.56799	225.60393	1484.66711	-1170.01062	-227.47606	1489.53357	-1074.22913	104.32964	1489.05151	-1055.27649	-84.51826	1485.35107	-1042.06689	109.30282	1399.19031	-1159.64001	260.22971	1343.54675	-1094.79346	290.20203	1163.50488	-1089.40039	193.68391	1154.36292	-1189.23962	273.32346	1094.33765	-1131.22522	289.31845	961.45197	-1234.77783	261.28690	926.37885	-1248.12964	308.73581	904.27051	-1255.81616	258.85727	876.91620	-1257.01904	242.76935	824.27924	-1256.57581	258.70242	773.32349	-1268.53760	335.42215	828.77734	-1231.19141	319.04388	759.01611	-1197.23169	268.74817	777.93835	-1102.49048	-250.92363	1347.45105	-1028.37451	-254.62018	1181.94531	-1027.38062	-160.88614	1160.23828	-1106.22705	-261.08630	1093.94446	-1033.52783	-279.02475	994.62195	-1125.95837	-265.04959	929.26904	-1099.85303	-306.12018	899.14069	-1143.02185	-266.55847	872.34961	-1158.88611	-242.89444	826.17383	-1160.39380	-240.86206	774.33405	-1114.12354	-318.17715	798.37061	-1112.13684	-288.26468	740.25323	-1108.31372	-228.95895	741.20038	-1013.13361	3.98635	1126.40466	-1213.24036	185.25285	1062.67883	-1196.89014	-167.42906	1076.70630	-1218.76904	162.49762	684.36774	-1289.63647	64.46838	593.09644	-1249.80530	126.64661	528.41577	-1227.98682	18.64154	529.79730	-1254.86084	78.18540	312.74503	-1163.54590	111.77862	84.08427	-1173.26990	8.01625	106.06551	-1099.04053	66.78826	48.28528	-1333.74866	69.00108	42.12241	-1270.08887	31.20406	78.65886	-1232.89246	-178.39487	689.42615	-1253.14050	-169.49873	537.90155	-1253.51025	-57.28315	518.48596	-1147.96680	-121.31649	352.82880	-916.53113	-130.42804	221.78769	-977.44550	-43.62162	213.02690	-871.61664	-57.30942	220.65981	-1021.74664	-122.65462	75.42090	-1012.28925	-83.42590	145.16708																																																																																																																															
452	3.758	-1379.47974	-8.27384	1767.58374	-1468.56787	1.47782	1637.61511	-1241.98425	-11.15664	1706.33386	-1365.10559	-2.08435	1472.23462	-1141.48999	6.08106	1580.26550	-1243.22632	118.19633	1495.09521	-1233.17334	-128.12163	1488.03149	-1199.95898	227.59686	1485.61792	-1174.12891	-226.06351	1491.21094	-1079.43518	106.08140	1489.13452	-1063.26514	-83.78021	1485.71948	-1046.34302	108.40234	1399.84509	-1164.82336	260.88947	1344.32727	-1101.91333	292.54495	1163.86487	-1093.19739	196.48483	1153.91968	-1194.77417	272.06909	1095.62988	-1137.38086	291.16412	961.31024	-1242.10217	261.31241	926.55701	-1255.61902	309.53433	905.26202	-1262.16492	259.86365	877.53479	-1263.83643	243.69897	824.24939	-1259.56787	259.98871	774.07135	-1276.08496	336.15576	828.98529	-1236.15198	322.01987	760.01892	-1202.39050	273.00812	780.37946	-1106.72937	-249.36469	1348.36011	-1033.46399	-252.98457	1183.03918	-1031.38708	-158.44511	1160.61267	-1109.03137	-260.01865	1093.84692	-1037.71973	-276.88092	995.00543	-1130.68762	-265.98230	930.64734	-1103.37415	-304.13843	899.12573	-1148.14722	-265.09552	872.65900	-1162.75024	-241.62788	826.64807	-1167.90063	-245.08183	776.25684	-1117.59119	-316.61234	798.61615	-1117.56128	-286.53607	739.97607	-1112.67920	-227.21590	742.86108	-1020.27515	5.01433	1126.68750	-1217.85400	185.40503	1062.93750	-1201.51855	-167.30469	1077.09033	-1221.70557	162.90173	685.16785	-1292.61658	63.53100	592.58313	-1251.24365	126.45151	528.09003	-1230.04199	18.82915	529.68555	-1255.31970	78.29855	312.31335	-1163.54590	111.77862	84.08427	-1173.26990	8.01625	106.06551	-1099.22363	67.52404	48.09228	-1334.23059	69.54320	41.42443	-1270.31555	30.85429	78.40641	-1240.70801	-178.45317	689.98926	-1263.64270	-168.47029	539.12366	-1262.60779	-56.53221	519.00677	-1158.52429	-119.92596	352.89404	-931.02716	-129.43405	217.75674	-992.52618	-43.71734	211.16179	-885.42438	-57.04620	216.03535	-1039.74377	-123.70200	75.71008	-1028.36377	-83.32600	144.55865																																																																																																																															
453	3.767	-1384.54578	-8.17460	1767.95581	-1473.57703	1.22625	1638.39233	-1247.10645	-6.90627	1705.90222	-1369.59436	-2.32853	1471.76685	-1146.06689	6.67965	1581.24097	-1247.50989	118.57578	1494.83789	-1238.02795	-128.31992	1488.73450	-1204.96069	226.83542	1484.83521	-1180.39392	-227.86705	1492.45642	-1082.47327	106.02430	1489.29041	-1068.43152	-81.06949	1485.98584	-1052.91492	109.84425	1399.36023	-1168.33557	261.34451	1344.22034	-1108.14209	293.99240	1163.88757	-1100.35449	196.34340	1154.42053	-1201.38452	272.75748	1096.26245	-1146.79468	295.05423	962.45831	-1250.14807	262.95569	928.23230	-1262.76855	310.43173	906.21008	-1269.73828	260.25134	878.03986	-1269.92603	243.93158	825.45569	-1263.82263	258.93625	775.64636	-1282.70679	338.39511	829.78369	-1242.29822	324.43164	761.48547	-1208.42566	274.67435	783.54089	-1110.54919	-248.42587	1348.81384	-1037.13354	-251.64420	1183.15027	-1036.27686	-156.09300	1161.26782	-1113.13464	-258.99902	1094.98889	-1041.97131	-275.75507	995.43091	-1136.29626	-263.75656	930.89276	-1106.42932	-302.89014	898.84106	-1151.75708	-263.85159	873.15082	-1166.79858	-240.00575	826.83783	-1173.58875	-243.18983	776.07495	-1123.09473	-315.12723	799.97375	-1119.22070	-283.83759	740.35620	-1117.54272	-224.72704	743.02905	-1024.36804	3.67375	1126.90332	-1223.04883	185.34984	1063.56506	-1207.42188	-167.04861	1077.74084	-1225.66992	163.17609	684.36145	-1292.55981	65.27753	591.35162	-1254.80420	127.84164	528.34241	-1232.29749	19.06548	529.02686	-1256.41211	78.68443	312.07343	-1164.20728	111.36940	84.11562	-1173.28613	8.12781	106.18684	-1098.66602	66.99819	48.45301	-1334.19702	69.69212	41.32877	-1269.94592	31.84287	79.02776	-1249.85315	-177.61102	690.70001	-1273.62512	-168.45599	540.60468	-1271.92896	-55.93758	521.30115	-1171.72986	-119.49332	354.02737	-945.05774	-130.13812	214.40356	-1006.74780	-43.36762	208.94360	-899.74261	-58.23306	210.65576	-1057.75061	-124.00050	75.25939	-1043.98096	-83.24872	142.92725																																																																																																																															
454	3.775	-1389.58594	-7.73829	1768.80469	-1477.97498	2.55942	1638.60510	-1252.30786	-6.88156	1707.07751	-1376.21423	-1.49811	1473.50928	-1149.33411	8.25782	1579.81348	-1253.13306	119.63057	1495.38196	-1243.30505	-127.92805	1488.87512	-1208.90491	227.71716	1485.97266	-1184.57495	-226.63557	1491.96179	-1087.39075	106.18994	1488.80603	-1072.19922	-84.73611	1487.51929	-1056.14954	110.74390	1399.37756	-1173.60657	262.79584	1345.76147	-1114.06396	295.05273	1163.99695	-1105.36584	195.00867	1156.03162	-1207.95288	274.06268	1097.90991	-1154.70447	294.80731	963.35400	-1257.93372	264.26648	929.60986	-1270.61218	311.95920	907.58948	-1276.95056	261.08353	879.00378	-1273.37427	244.00340	826.52600	-1266.53577	257.60611	776.82941	-1288.91760	338.55112	829.51996	-1248.63770	323.52243	763.00165	-1212.65039	271.68271	784.21869	-1114.59094	-247.45088	1348.96753	-1042.56006	-251.18591	1183.37769	-1040.72864	-154.43393	1160.74023	-1117.41248	-257.78754	1095.06677	-1046.86072	-272.68436	996.37262	-1137.56726	-262.06259	930.82263	-1110.18506	-300.77722	899.31433	-1156.57898	-262.21899	873.54333	-1173.03650	-239.00594	827.34058	-1174.20947	-237.77773	776.47443	-1127.38306	-314.20023	800.14978	-1124.30005	-282.23676	740.98138	-1121.51672	-222.52757	742.83417	-1029.07324	4.85400	1126.74170	-1227.92883	186.50679	1063.59961	-1212.03833	-166.61066	1078.48706	-1228.71838	163.25041	684.44073	-1295.04150	66.04163	590.55695	-1256.18286	127.94197	527.77863	-1233.47620	18.62378	528.46777	-1257.27209	78.84407	311.29596	-1164.03027	111.45735	84.15222	-1173.28613	8.12781	106.18684	-1098.43359	67.34497	48.49133	-1334.23413	69.36127	41.07540	-1269.98450	31.95350	78.93589	-1255.89319	-175.92566	692.04730	-1282.35400	-167.31155	541.72809	-1282.22913	-54.74863	523.14532	-1182.91479	-119.25823	353.05136	-960.02325	-131.08778	210.61980	-1021.25751	-42.55405	206.03191	-914.56775	-57.50506	204.67702	-1077.12476	-124.89791	74.99226	-1061.01611	-83.91040	142.09308																																																																																																																															
